<?xml version="1.0" encoding="UTF-8" standalone="no"?>
<svg
   width="1024"
   height="1024"
   viewBox="0 0 512 512"
   version="1.1"
   id="svg2"
   sodipodi:docname="storytaim.svg"
   inkscape:version="1.3.2 (091e20e, 2023-11-25, custom)"
   xmlns:inkscape="http://www.inkscape.org/namespaces/inkscape"
   xmlns:sodipodi="http://sodipodi.sourceforge.net/DTD/sodipodi-0.dtd"
   xmlns="http://www.w3.org/2000/svg"
   xmlns:svg="http://www.w3.org/2000/svg">
  <defs
     id="defs2" />
  <sodipodi:namedview
     id="namedview2"
     pagecolor="#ffffff"
     bordercolor="#000000"
     borderopacity="0.25"
     inkscape:showpageshadow="2"
     inkscape:pageopacity="0.0"
     inkscape:pagecheckerboard="0"
     inkscape:deskcolor="#d1d1d1"
     inkscape:zoom="0.53654489"
     inkscape:cx="125.80494"
     inkscape:cy="569.38386"
     inkscape:window-width="1920"
     inkscape:window-height="991"
     inkscape:window-x="-9"
     inkscape:window-y="-9"
     inkscape:window-maximized="1"
     inkscape:current-layer="svg2" />
  <path
     d="m 190.32797,59.05203 c 2.19116,3.408478 4.86926,7.303882 1.21732,10.955823 l -0.24347,9.616778 V 92.77162 a 100934.79,100934.79 0 0 1 -0.36518,36.51941 l -0.12174,21.42472 v 6.93869 l -0.12174,6.20831 v 5.59963 c -0.36519,4.01714 -0.36519,4.01714 -2.79981,5.23445 -17.28586,-12.78179 -20.69433,-32.86746 -13.51218,-52.34448 2.55635,-4.86926 2.55635,-4.86926 6.20829,-9.73851 0.48693,-4.2606 0.48693,-4.2606 0.48693,-9.12986 V 87.050245 c 0.12174,-9.981973 0.12174,-9.981973 -2.92155,-19.355288 0.73038,-9.129853 3.28674,-10.59063 12.17313,-8.521196 z m 137.55645,-1.217314 c 4.86926,4.869255 5.11272,8.764659 1.21733,14.607764 -0.60866,6.573494 -0.48693,13.390451 -0.48693,19.963945 V 108.2315 c 0.60864,5.11272 2.06942,6.81696 5.35618,10.4689 8.76466,19.11183 7.06041,38.46712 -8.52121,53.5618 l -4.86925,1.21732 v -5.8431 a 27011.583,27011.583 0 0 0 -1.82596,-81.560026 v -3.895405 c 0,-6.208299 0,-6.208299 -1.82597,-12.051404 -0.7304,-9.616779 0.73038,-12.173138 10.95581,-12.173138 z m -13.39044,48.692544 c 0.24346,4.86926 0.36518,9.49506 0.36518,14.36431 v 4.13886 a 2061.7643,2061.7643 0 0 1 0.24346,31.04151 v 4.01713 c -0.12171,22.5203 -13.6339,31.65015 -33.47611,37.73673 l -4.38233,1.33904 c -25.92878,5.23445 -68.16958,3.04329 -80.82964,-24.46801 -0.48693,-5.11271 -0.73039,-9.7385 -0.60865,-14.85122 v -4.38233 a 1141.8403,1141.8403 0 0 1 0,-22.64204 v -12.90353 c 0,-11.56447 2.92156,-19.23355 11.56448,-26.780896 l 3.16501,-3.043285 C 237.8032,70.251316 300.12967,70.61651 314.49398,106.52726 Z m -98.60242,7.30389 c 2.19117,2.19117 5.84311,1.33905 8.88639,1.33905 h 15.82509 a 11742.817,11742.817 0 0 0 58.06585,-0.12174 c -1.58251,-7.66907 -1.58251,-6.81696 -8.76466,-6.81696 h -15.45988 a 1468.4455,1468.4455 0 0 0 -28.7286,0 h -25.44186 c -3.8954,0.3652 -3.8954,0.3652 -4.38233,5.59965 z m -3.65194,25.92878 c 0,9.73851 2.67809,14.12084 10.95582,19.11182 8.8864,0.97386 16.31202,-1.58251 20.69434,-9.73851 1.21731,-9.86024 0.73038,-15.58161 -7.30389,-21.91164 -11.32102,-2.43463 -21.42471,0 -24.34627,12.53833 z m 53.56181,-1.58251 c -1.33905,9.73851 2.06942,15.58162 10.95582,20.08568 9.98197,1.58251 16.19027,-1.21731 20.69433,-10.34717 0.97386,-10.95582 -1.21731,-18.01624 -12.17313,-21.91165 -9.73852,0 -16.31202,2.43463 -19.47702,12.17314 z m 15.58161,30.43284 a 3559.0601,3559.0601 0 0 0 -53.44007,0.3652 c -9.12986,-0.73039 -9.12986,-0.73039 -12.05141,6.93869 a 5034.6878,5034.6878 0 0 0 63.54379,0.60865 h 10.34716 l 4.38232,0.12173 c 4.13887,-0.36519 4.13887,-0.36519 4.50406,-6.81695 -3.28674,-3.28674 -12.66006,-1.21732 -17.28585,-1.21732 z m -42.36252,37.73673 h 32.86747 v 14.60776 h -32.86747 z m -83.99464,7.30389 a 1839620600,1839620600 0 0 1 23.12896,10.95581 l 4.62578,2.19116 a 850.90229,850.90229 0 0 0 31.65016,14.12084 c 19.96395,8.52121 19.96395,8.52121 22.15511,12.90354 -21.54645,-2.19117 -41.87559,-13.26872 -61.35261,-22.27685 l -9.25158,-4.2606 -4.86926,-2.06944 -4.26059,-1.94769 c -4.26061,-3.16501 -3.28676,-4.86926 -1.82597,-9.61677 z m 202.07408,2.43462 c -2.43463,9.37332 -13.39045,12.17314 -21.42473,15.82508 l -4.62579,2.19116 a 591.61447,591.61447 0 0 1 -31.52843,13.39046 l -3.8954,1.46077 a 68.778226,68.778226 0 0 1 -20.08568,4.86926 c 0,-6.45177 6.45176,-6.69523 11.80794,-8.8864 l 7.06043,-2.92154 6.69522,-2.79983 11.80794,-5.47791 14.97296,-6.69522 c 6.45177,-2.79982 12.53833,-5.72139 18.62491,-9.25159 5.59963,-2.92155 5.59963,-2.92155 10.46888,-1.70424 z m -219.11648,8.52119 c 7.66909,0.85213 13.63392,2.43464 20.69434,5.59965 l 6.20829,2.6781 15.21642,7.06041 c 6.2083,2.92155 12.4166,5.72137 18.74663,8.39946 l 4.86926,2.06944 c 6.08658,2.43463 6.08658,2.43463 13.14699,3.16501 16.19027,2.31289 23.37242,7.06043 24.10281,23.98108 a 1742.9497,1742.9497 0 0 0 -0.60865,32.50228 c 0,9.73851 -0.36519,19.59876 -0.60866,29.58073 a 4056.9415,4056.9415 0 0 1 -1.94771,89.47256 l -16.19026,-5.47793 c -21.18127,-7.30387 -40.65828,-9.73851 -62.93512,-10.34716 l -0.3652,-4.50406 c -1.33905,-16.06854 -4.50405,-28.97206 -20.32914,-36.88461 -0.73038,-5.59964 -0.73038,-11.19928 -0.73038,-16.79893 l -0.24346,-4.74752 c -0.12174,-10.34717 0.48693,-14.24257 10.71235,-18.6249 10.95583,-11.32101 10.95583,-23.98108 2.19116,-36.88461 -3.165,-3.65193 -3.165,-3.65193 -7.7908,-4.38233 -6.57349,-4.01713 -5.23445,-9.73851 -4.86925,-16.79892 v -4.2606 a 993.57147,993.57147 0 0 1 0.36519,-22.5203 z m 234.94156,0 a 1660.9028,1660.9028 0 0 1 1.09558,48.08389 l 0.12172,4.01715 c 0,10.1037 -2.79982,12.0514 -12.17313,14.85122 -10.71236,6.93869 -12.90352,18.74663 -9.49504,30.55457 3.65193,7.91254 9.37331,13.63391 18.2597,15.09469 5.96484,3.16502 4.13887,8.5212 4.01713,14.60777 v 7.06042 c -0.73038,7.66907 -1.33903,7.54734 -8.52119,10.22544 -15.82508,6.69523 -28.60688,20.08567 -28.60688,37.98018 -1.70423,7.18215 -4.01714,5.47792 -10.59063,5.8431 -7.18214,0.7304 -13.75565,2.92156 -20.69432,5.11272 l -4.13887,1.21731 -18.25972,5.96484 c -4.74751,1.46079 -4.74751,1.46079 -8.39946,1.46079 a 2513.9963,2513.9963 0 0 1 -1.82597,-112.60152 2466.6427,2466.6427 0 0 1 -0.24345,-40.41482 v -6.45176 c 1.09558,-6.2083 2.31288,-6.81695 8.156,-8.64293 l 5.4779,-1.82597 6.2083,-2.06943 c 18.38143,-6.08658 36.03249,-13.02526 53.31834,-21.91166 16.43375,-8.27772 16.43375,-8.27772 26.29399,-8.27772 z m -153.625,3.16502 h 17.28585 a 2948.2121,2948.2121 0 0 1 43.82331,0 h 16.06853 c 3.40848,0.48693 3.40848,0.48693 4.62579,4.13887 a 7859.4643,7859.4643 0 0 1 -20.9378,10.22544 l -4.50405,2.19116 -4.13887,1.9477 c -3.28674,1.46077 -3.28674,1.46077 -5.72137,1.46077 v 6.08658 a 530.74878,530.74878 0 0 1 -15.82509,0.60866 c -4.86925,-0.60866 -4.86925,-0.60866 -7.30387,-6.69524 a 174.07586,174.07586 0 0 0 -13.87738,-6.93869 l -3.8954,-1.82597 a 2021.9581,2021.9581 0 0 0 -10.22544,-4.62579 l -4.86925,-2.43462 c 1.82596,-5.47791 4.01713,-4.13887 9.49504,-4.13887 z m 25.80705,34.57171 h 21.91165 a 53913.607,53913.607 0 0 1 0.24346,166.16332 c 0,11.32101 0,11.32101 -2.6781,13.99911 -4.13885,0.24346 -4.13885,0.24346 -9.25158,0.24346 h -4.86925 c -4.13886,-0.24346 -4.13886,-0.24346 -5.35618,-1.46077 l -0.12173,-16.55547 v -5.35618 a 11662.353,11662.353 0 0 1 0,-61.10915 V 325.8872 Z"
     id="path1"
     style="stroke-width:1.21731" />
  <path
     d="m 152.59463,303.73209 c 3.5302,8.27773 2.67808,15.82507 -4.01714,21.91164 -8.52119,3.40849 -15.21643,3.16501 -21.91165,-3.65194 -4.13886,-8.27774 -3.65193,-14.85122 2.43463,-21.91165 8.156,-5.59964 17.40758,-4.38233 23.49416,3.65195 z m 241.88022,-1.21731 c 4.13888,8.39946 3.65196,14.85122 -2.43463,21.91163 -7.79079,4.62581 -14.60775,5.35618 -21.91163,-0.48692 -6.08657,-7.91253 -4.86925,-16.43373 1.21731,-23.85935 7.66907,-5.11271 16.43374,-3.65194 23.12895,2.43464 z m -272.67827,70.60419 c 10.46891,0.85213 19.96395,4.01713 26.78091,12.17313 l 2.55636,2.79983 c 4.74752,6.81696 6.08657,13.87738 6.45176,22.03338 -0.24347,7.42561 -0.24347,7.42561 6.81695,9.25158 1.21733,11.80794 1.21733,11.80794 -3.65193,13.39045 l -2.06944,-6.5735 A 112.23632,112.23632 0 0 0 140.0563,392.59599 l -2.31291,-3.16501 c -3.77367,-4.38233 -8.52118,-7.18215 -13.14699,-10.34717 -2.79982,-2.3129 -2.79982,-2.3129 -2.79982,-5.96484 z m 270.24364,0 c -3.8954,4.01713 -8.03425,7.7908 -12.17312,11.56448 l -3.16502,2.92156 -6.20829,5.4779 c -6.08658,7.06043 -10.34718,15.21642 -13.75566,23.85935 -6.69521,-8.8864 -4.13886,-16.55547 1.21732,-25.56358 l 1.94771,-3.65195 c 8.03426,-9.7385 19.59874,-15.09468 32.13706,-14.60776 z m -248.69718,37.98018 c 7.30389,15.21643 13.63392,34.08479 -0.24346,47.7187 -19.23356,12.05141 -39.80616,-1.21731 -54.170463,-15.09468 -13.268718,-16.92067 -22.276844,-37.73672 -9.738505,-57.57893 22.642028,-21.05954 52.831408,3.77366 64.152428,24.95491 z m 293.49433,-17.16411 c 8.27774,25.80704 -10.95581,50.27504 -31.40669,63.17858 -13.75564,6.81695 -28.7286,10.46889 -40.65827,-1.70425 -14.36431,-22.76376 4.50405,-50.8837 21.18126,-66.46532 17.16412,-12.53832 39.19749,-15.82508 50.8837,4.99099 z"
     id="path2"
     style="stroke-width:1.21731" />
</svg>
