<svg xmlns="http://www.w3.org/2000/svg" width="1024" height="1024" viewBox="0 0 512 512"><path d="M210 89c1.8 2.8 4 6 1 9l-.2 7.9v10.8a82916 82916 0 0 1-.3 30l-.1 17.6v5.7l-.1 5.1v4.6c-.3 3.3-.3 3.3-2.3 4.3-14.2-10.5-17-27-11.1-43 2.1-4 2.1-4 5.1-8 .4-3.5.4-3.5.4-7.5V112c.1-8.2.1-8.2-2.4-15.9.6-7.5 2.7-8.7 10-7ZM323 88c4 4 4.2 7.2 1 12-.5 5.4-.4 11-.4 16.4v13c.5 4.2 1.7 5.6 4.4 8.6 7.2 15.7 5.8 31.6-7 44l-4 1v-4.8a22189.5 22189.5 0 0 0-1.5-67V108c0-5.1 0-5.1-1.5-9.9-.6-7.9.6-10 9-10ZM312 128c.2 4 .3 7.8.3 11.8v3.4a1693.7 1693.7 0 0 1 .2 25.5v3.3c-.1 18.5-11.2 26-27.5 31l-3.6 1.1c-21.3 4.3-56 2.5-66.4-20.1-.4-4.2-.6-8-.5-12.2v-3.6a938 938 0 0 1 0-18.6V139c0-9.5 2.4-15.8 9.5-22l2.6-2.5c22.4-16.3 73.6-16 85.4 13.5Zm-81 6c1.8 1.8 4.8 1.1 7.3 1.1h13a9646.5 9646.5 0 0 0 47.7-.1c-1.3-6.3-1.3-5.6-7.2-5.6H279.1a1206.3 1206.3 0 0 0-23.6 0H234.6c-3.2.3-3.2.3-3.6 4.6Zm-3 21.3c0 8 2.2 11.6 9 15.7 7.3.8 13.4-1.3 17-8 1-8.1.6-12.8-6-18-9.3-2-17.6 0-20 10.3Zm44-1.3c-1.1 8 1.7 12.8 9 16.5 8.2 1.3 13.3-1 17-8.5.8-9-1-14.8-10-18-8 0-13.4 2-16 10Zm12.8 25a2923.7 2923.7 0 0 0-43.9.3c-7.5-.6-7.5-.6-9.9 5.7a4135.9 4135.9 0 0 0 52.2.5h8.5l3.6.1c3.4-.3 3.4-.3 3.7-5.6-2.7-2.7-10.4-1-14.2-1ZM250 210h27v12h-27v-12ZM181 216a1511213238.2 1511213238.2 0 0 1 19 9l3.8 1.8a699 699 0 0 0 26 11.6c16.4 7 16.4 7 18.2 10.6-17.7-1.8-34.4-10.9-50.4-18.3l-7.6-3.5-4-1.7-3.5-1.6c-3.5-2.6-2.7-4-1.5-7.9ZM347 218c-2 7.7-11 10-17.6 13l-3.8 1.8a486 486 0 0 1-25.9 11l-3.2 1.2a56.5 56.5 0 0 1-16.5 4c0-5.3 5.3-5.5 9.7-7.3l5.8-2.4 5.5-2.3 9.7-4.5L323 227c5.3-2.3 10.3-4.7 15.3-7.6 4.6-2.4 4.6-2.4 8.6-1.4ZM167 225c6.3.7 11.2 2 17 4.6l5.1 2.2 12.5 5.8c5.1 2.4 10.2 4.7 15.4 6.9l4 1.7c5 2 5 2 10.8 2.6 13.3 1.9 19.2 5.8 19.8 19.7a1431.8 1431.8 0 0 0-.5 26.7c0 8-.3 16.1-.5 24.3A3332.7 3332.7 0 0 1 249 393l-13.3-4.5c-17.4-6-33.4-8-51.7-8.5l-.3-3.7c-1.1-13.2-3.7-23.8-16.7-30.3-.6-4.6-.6-9.2-.6-13.8l-.2-3.9c-.1-8.5.4-11.7 8.8-15.3 9-9.3 9-19.7 1.8-30.3-2.6-3-2.6-3-6.4-3.6-5.4-3.3-4.3-8-4-13.8v-3.5a816.2 816.2 0 0 1 .3-18.5l.3-18.3ZM360 225a1364.4 1364.4 0 0 1 .9 39.5l.1 3.3c0 8.3-2.3 9.9-10 12.2-8.8 5.7-10.6 15.4-7.8 25.1 3 6.5 7.7 11.2 15 12.4 4.9 2.6 3.4 7 3.3 12v5.8c-.6 6.3-1.1 6.2-7 8.4-13 5.5-23.5 16.5-23.5 31.2-1.4 5.9-3.3 4.5-8.7 4.8-5.9.6-11.3 2.4-17 4.2l-3.4 1-15 4.9C283 391 283 391 280 391a2065.2 2065.2 0 0 1-1.5-92.5 2026.3 2026.3 0 0 1-.2-33.2V260c.9-5.1 1.9-5.6 6.7-7.1l4.5-1.5 5.1-1.7c15.1-5 29.6-10.7 43.8-18 13.5-6.8 13.5-6.8 21.6-6.8ZM233.8 227.6H248a2421.9 2421.9 0 0 1 36 0h13.2c2.8.4 2.8.4 3.8 3.4a6456.4 6456.4 0 0 1-17.2 8.4l-3.7 1.8-3.4 1.6C274 244 274 244 272 244v5a436 436 0 0 1-13 .5c-4-.5-4-.5-6-5.5a143 143 0 0 0-11.4-5.7l-3.2-1.5a1661 1661 0 0 0-8.4-3.8l-4-2c1.5-4.5 3.3-3.4 7.8-3.4ZM255 256h18a44289 44289 0 0 1 .2 136.5c0 9.3 0 9.3-2.2 11.5-3.4.2-3.4.2-7.6.2h-4c-3.4-.2-3.4-.2-4.4-1.2l-.1-13.6V385a9580.4 9580.4 0 0 1 0-50.2v-26.6l.1-52.2Z"/><path d="M173.3 290c2.9 6.8 2.2 13-3.3 18-7 2.8-12.5 2.6-18-3-3.4-6.8-3-12.2 2-18 6.7-4.6 14.3-3.6 19.3 3ZM372 289c3.4 6.9 3 12.2-2 18-6.4 3.8-12 4.4-18-.4-5-6.5-4-13.5 1-19.6 6.3-4.2 13.5-3 19 2ZM148 347c8.6.7 16.4 3.3 22 10l2.1 2.3c3.9 5.6 5 11.4 5.3 18.1-.2 6.1-.2 6.1 5.6 7.6 1 9.7 1 9.7-3 11l-1.7-5.4A92.2 92.2 0 0 0 163 363l-1.9-2.6c-3.1-3.6-7-5.9-10.8-8.5-2.3-1.9-2.3-1.9-2.3-4.9ZM370 347c-3.2 3.3-6.6 6.4-10 9.5l-2.6 2.4-5.1 4.5c-5 5.8-8.5 12.5-11.3 19.6-5.5-7.3-3.4-13.6 1-21l1.6-3c6.6-8 16.1-12.4 26.4-12ZM165.7 378.2c6 12.5 11.2 28-.2 39.2-15.8 9.9-32.7-1-44.5-12.4-10.9-13.9-18.3-31-8-47.3 18.6-17.3 43.4 3.1 52.7 20.5ZM406.8 364.1c6.8 21.2-9 41.3-25.8 51.9-11.3 5.6-23.6 8.6-33.4-1.4-11.8-18.7 3.7-41.8 17.4-54.6 14.1-10.3 32.2-13 41.8 4.1Z"/></svg>